<svg width="125" height="23" viewBox="0 0 125 23" fill="none" xmlns="http://www.w3.org/2000/svg">
<path d="M5.83807 0.181818L11.1115 16.7585H11.3139L16.598 0.181818H21.7116L14.1903 22H8.24574L0.713778 0.181818H5.83807ZM30.1642 22.3196C28.4809 22.3196 27.0321 21.9787 25.8176 21.2969C24.6102 20.608 23.6798 19.6349 23.0264 18.3778C22.373 17.1136 22.0463 15.6186 22.0463 13.8928C22.0463 12.2095 22.373 10.7322 23.0264 9.46094C23.6798 8.18963 24.5995 7.19886 25.7856 6.48864C26.9788 5.77841 28.3779 5.4233 29.9831 5.4233C31.0626 5.4233 32.0676 5.5973 32.998 5.94531C33.9355 6.28622 34.7522 6.80114 35.4483 7.49006C36.1514 8.17898 36.6983 9.04545 37.0889 10.0895C37.4795 11.1264 37.6748 12.3409 37.6748 13.733V14.9794H23.8574V12.1669H33.4028C33.4028 11.5135 33.2608 10.9347 32.9767 10.4304C32.6926 9.92614 32.2984 9.53196 31.7941 9.24787C31.297 8.95668 30.7181 8.81108 30.0576 8.81108C29.3687 8.81108 28.7579 8.97088 28.2252 9.29048C27.6997 9.60298 27.2877 10.0256 26.9895 10.5582C26.6912 11.0838 26.5385 11.6697 26.5314 12.3161V14.9901C26.5314 15.7997 26.6805 16.4993 26.9788 17.0888C27.2842 17.6783 27.7139 18.1328 28.2679 18.4524C28.8218 18.772 29.4788 18.9318 30.2387 18.9318C30.743 18.9318 31.2047 18.8608 31.6237 18.7188C32.0427 18.5767 32.4014 18.3636 32.6997 18.0795C32.998 17.7955 33.2252 17.4474 33.3815 17.0355L37.5789 17.3125C37.3659 18.321 36.9291 19.2017 36.2686 19.9545C35.6152 20.7003 34.77 21.2827 33.7331 21.7017C32.7032 22.1136 31.5136 22.3196 30.1642 22.3196ZM40.9365 22V5.63636H45.3363V8.49148H45.5068C45.8051 7.47585 46.3058 6.70881 47.0089 6.19034C47.712 5.66477 48.5217 5.40199 49.4379 5.40199C49.6652 5.40199 49.9102 5.41619 50.173 5.4446C50.4358 5.47301 50.6666 5.51207 50.8654 5.56179V9.58878C50.6524 9.52486 50.3576 9.46804 49.9812 9.41832C49.6048 9.36861 49.2603 9.34375 48.9478 9.34375C48.2802 9.34375 47.6836 9.48935 47.1581 9.78054C46.6396 10.0646 46.2277 10.4624 45.9223 10.9737C45.624 11.4851 45.4748 12.0746 45.4748 12.7422V22H40.9365ZM60.1436 22.3196C58.4675 22.3196 57.0257 21.9645 55.8183 21.2543C54.618 20.5369 53.6947 19.5426 53.0484 18.2713C52.4092 17 52.0896 15.5369 52.0896 13.8821C52.0896 12.206 52.4128 10.7358 53.0591 9.47159C53.7125 8.20028 54.6393 7.20952 55.8396 6.49929C57.0399 5.78196 58.4675 5.4233 60.1223 5.4233C61.5499 5.4233 62.7999 5.68253 63.8723 6.20099C64.9447 6.71946 65.7935 7.44744 66.4185 8.38494C67.0435 9.32244 67.3879 10.4233 67.4518 11.6875H63.1692C63.0484 10.8707 62.7288 10.2138 62.2104 9.71662C61.699 9.21236 61.0278 8.96023 60.1969 8.96023C59.4938 8.96023 58.8794 9.15199 58.3538 9.53551C57.8354 9.91193 57.4305 10.4624 57.1393 11.1868C56.8482 11.9112 56.7026 12.7884 56.7026 13.8182C56.7026 14.8622 56.8446 15.75 57.1287 16.4815C57.4199 17.2131 57.8283 17.7706 58.3538 18.1541C58.8794 18.5376 59.4938 18.7294 60.1969 18.7294C60.7153 18.7294 61.1805 18.6229 61.5925 18.4098C62.0115 18.1967 62.356 17.8878 62.6259 17.483C62.9028 17.071 63.084 16.5774 63.1692 16.0021H67.4518C67.3808 17.2521 67.0399 18.353 66.4291 19.3047C65.8254 20.2493 64.9909 20.9879 63.9256 21.5206C62.8602 22.0533 61.5996 22.3196 60.1436 22.3196ZM78.051 22.3196C76.3962 22.3196 74.9651 21.968 73.7577 21.2649C72.5574 20.5547 71.6306 19.5675 70.9772 18.3033C70.3238 17.032 69.997 15.5582 69.997 13.8821C69.997 12.1918 70.3238 10.7145 70.9772 9.45028C71.6306 8.17898 72.5574 7.19176 73.7577 6.48864C74.9651 5.77841 76.3962 5.4233 78.051 5.4233C79.7059 5.4233 81.1334 5.77841 82.3337 6.48864C83.5411 7.19176 84.4715 8.17898 85.1249 9.45028C85.7783 10.7145 86.105 12.1918 86.105 13.8821C86.105 15.5582 85.7783 17.032 85.1249 18.3033C84.4715 19.5675 83.5411 20.5547 82.3337 21.2649C81.1334 21.968 79.7059 22.3196 78.051 22.3196ZM78.0723 18.804C78.8252 18.804 79.4537 18.5909 79.958 18.1648C80.4622 17.7315 80.8422 17.142 81.0979 16.3963C81.3607 15.6506 81.4921 14.8018 81.4921 13.8501C81.4921 12.8984 81.3607 12.0497 81.0979 11.304C80.8422 10.5582 80.4622 9.96875 79.958 9.53551C79.4537 9.10227 78.8252 8.88565 78.0723 8.88565C77.3124 8.88565 76.6732 9.10227 76.1547 9.53551C75.6434 9.96875 75.2563 10.5582 74.9935 11.304C74.7378 12.0497 74.61 12.8984 74.61 13.8501C74.61 14.8018 74.7378 15.6506 74.9935 16.3963C75.2563 17.142 75.6434 17.7315 76.1547 18.1648C76.6732 18.5909 77.3124 18.804 78.0723 18.804ZM100.445 22H95.5021L103.034 0.181818H108.979L116.5 22H111.557L106.092 5.16761H105.921L100.445 22ZM100.136 13.424H111.812V17.0249H100.136V13.424ZM124.039 0.181818V22H119.426V0.181818H124.039Z" fill="url(#paint0_radial_41_4)"/>
<defs>
<radialGradient id="paint0_radial_41_4" cx="0" cy="0" r="1" gradientUnits="userSpaceOnUse" gradientTransform="translate(121.5 2.5) rotate(170.123) scale(113.685 280.269)">
<stop stop-color="#1BA1E3"/>
<stop offset="0.3002" stop-color="#5489D6"/>
<stop offset="0.5455" stop-color="#9B72CB"/>
<stop offset="0.8254" stop-color="#D96570"/>
<stop offset="1" stop-color="#F49C46"/>
</radialGradient>
</defs>
</svg>
