<svg width="123" height="36" viewBox="0 0 123 36" fill="none" xmlns="http://www.w3.org/2000/svg">
<path d="M28.9627 16.55L28.6068 16.1941C27.9749 15.5622 26.9505 15.5622 26.3186 16.1941L18.1068 24.4059C17.4749 25.0378 16.4505 25.0378 15.8186 24.4059L7.6068 16.1941C6.97493 15.5622 5.95047 15.5622 5.3186 16.1941L4.9627 16.55C1.1627 20.35 -0.337296 25.25 0.062706 29.85C0.262707 31.65 1.76271 32.95 3.56271 32.95L30.2627 32.95C32.0627 32.95 33.6627 31.65 33.7627 29.85C34.2627 25.25 32.8627 20.45 28.9627 16.55Z" fill="url(#paint0_radial_2_22)"/>
<path d="M18.7638 15.4617L18.0265 17.1514C17.743 17.8009 16.8449 17.8009 16.5614 17.1514L15.8241 15.4617C15.1678 13.9579 13.9868 12.7608 12.5136 12.1066L10.484 11.2053C9.83868 10.9187 9.83868 9.97953 10.484 9.69295L12.45 8.81958C13.9611 8.14848 15.1634 6.90709 15.8083 5.35206L16.5552 3.55117C16.8323 2.88293 17.7551 2.88293 18.0324 3.55117L18.7794 5.35206C19.4243 6.90709 20.6266 8.14848 22.1377 8.81958L24.1039 9.69295C24.7492 9.97953 24.7492 10.9187 24.1039 11.2053L22.0743 12.1068C20.6008 12.7608 19.4199 13.9579 18.7638 15.4617Z" fill="url(#paint1_radial_2_22)"/>
<path d="M44.164 7.18182L50.2365 24.9517H50.4815L56.5539 7.18182H60.1122L52.2606 29H48.4573L40.6058 7.18182H44.164ZM68.4192 29.3303C66.807 29.3303 65.4185 28.9858 64.2537 28.2969C63.096 27.6009 62.2011 26.6243 61.569 25.3672C60.944 24.103 60.6315 22.6222 60.6315 20.9247C60.6315 19.2486 60.944 17.7713 61.569 16.4929C62.2011 15.2145 63.0818 14.2166 64.2111 13.4993C65.3474 12.782 66.6756 12.4233 68.1955 12.4233C69.1187 12.4233 70.0136 12.576 70.8801 12.8814C71.7466 13.1868 72.5243 13.6662 73.2132 14.3196C73.9021 14.973 74.4455 15.8217 74.8432 16.8658C75.2409 17.9027 75.4398 19.1634 75.4398 20.6477V21.777H62.432V19.3906H72.3183C72.3183 18.5526 72.1479 17.8104 71.807 17.1641C71.466 16.5107 70.9866 15.9957 70.3687 15.6193C69.758 15.2429 69.0406 15.0547 68.2168 15.0547C67.3219 15.0547 66.5406 15.2749 65.873 15.7152C65.2125 16.1484 64.7011 16.7166 64.3389 17.4197C63.9838 18.1158 63.8062 18.8722 63.8062 19.6889V21.5533C63.8062 22.647 63.998 23.5774 64.3815 24.3445C64.7722 25.1115 65.3155 25.6974 66.0115 26.1023C66.7075 26.5 67.5207 26.6989 68.4511 26.6989C69.0548 26.6989 69.6053 26.6136 70.1024 26.4432C70.5996 26.2656 71.0293 26.0028 71.3915 25.6548C71.7537 25.3068 72.0307 24.8771 72.2224 24.3658L75.2374 24.9091C74.9959 25.7969 74.5626 26.5746 73.9376 27.2422C73.3197 27.9027 72.542 28.4176 71.6045 28.7869C70.6741 29.1491 69.6124 29.3303 68.4192 29.3303ZM78.974 29V12.6364H82.0529V15.2358H82.2233C82.5216 14.3551 83.0472 13.6626 83.8 13.1584C84.56 12.647 85.4194 12.3913 86.3782 12.3913C86.577 12.3913 86.8114 12.3984 87.0813 12.4126C87.3583 12.4268 87.5749 12.4446 87.7311 12.4659V15.5128C87.6033 15.4773 87.376 15.4382 87.0493 15.3956C86.7226 15.3459 86.3959 15.321 86.0692 15.321C85.3164 15.321 84.6452 15.4808 84.0557 15.8004C83.4733 16.1129 83.0117 16.5497 82.6708 17.1108C82.3299 17.6648 82.1594 18.2969 82.1594 19.0071V29H78.974ZM96.7945 29.3303C95.2107 29.3303 93.8471 28.9716 92.7036 28.2543C91.5673 27.5298 90.6937 26.532 90.0829 25.2607C89.4721 23.9893 89.1667 22.5334 89.1667 20.8928C89.1667 19.2308 89.4792 17.7642 90.1042 16.4929C90.7292 15.2145 91.6099 14.2166 92.7462 13.4993C93.8826 12.782 95.2214 12.4233 96.7626 12.4233C98.0055 12.4233 99.1134 12.6541 100.086 13.1158C101.059 13.5703 101.844 14.2095 102.441 15.0334C103.045 15.8572 103.403 16.8196 103.517 17.9205H100.417C100.246 17.1534 99.8556 16.4929 99.2448 15.9389C98.6411 15.3849 97.8315 15.108 96.8158 15.108C95.9281 15.108 95.1504 15.3423 94.4827 15.8111C93.8222 16.2727 93.3073 16.9332 92.938 17.7926C92.5687 18.6449 92.384 19.6534 92.384 20.8182C92.384 22.0114 92.5651 23.0412 92.9273 23.9077C93.2896 24.7741 93.8009 25.4453 94.4614 25.9212C95.129 26.397 95.9138 26.6349 96.8158 26.6349C97.4195 26.6349 97.9664 26.5249 98.4565 26.3047C98.9536 26.0774 99.3691 25.7543 99.7029 25.3352C100.044 24.9162 100.282 24.4119 100.417 23.8224H103.517C103.403 24.8807 103.059 25.8253 102.483 26.6562C101.908 27.4872 101.138 28.1406 100.172 28.6165C99.2129 29.0923 98.0871 29.3303 96.7945 29.3303ZM113.816 29.3303C112.282 29.3303 110.943 28.9787 109.8 28.2756C108.656 27.5724 107.768 26.5888 107.136 25.3246C106.504 24.0604 106.188 22.5831 106.188 20.8928C106.188 19.1953 106.504 17.7109 107.136 16.4396C107.768 15.1683 108.656 14.1811 109.8 13.478C110.943 12.7749 112.282 12.4233 113.816 12.4233C115.35 12.4233 116.689 12.7749 117.832 13.478C118.976 14.1811 119.864 15.1683 120.496 16.4396C121.128 17.7109 121.444 19.1953 121.444 20.8928C121.444 22.5831 121.128 24.0604 120.496 25.3246C119.864 26.5888 118.976 27.5724 117.832 28.2756C116.689 28.9787 115.35 29.3303 113.816 29.3303ZM113.827 26.6562C114.821 26.6562 115.645 26.3935 116.298 25.8679C116.952 25.3423 117.435 24.6428 117.747 23.7692C118.067 22.8956 118.227 21.9332 118.227 20.8821C118.227 19.8381 118.067 18.8793 117.747 18.0057C117.435 17.125 116.952 16.4183 116.298 15.8857C115.645 15.353 114.821 15.0866 113.827 15.0866C112.825 15.0866 111.994 15.353 111.334 15.8857C110.68 16.4183 110.194 17.125 109.874 18.0057C109.562 18.8793 109.406 19.8381 109.406 20.8821C109.406 21.9332 109.562 22.8956 109.874 23.7692C110.194 24.6428 110.68 25.3423 111.334 25.8679C111.994 26.3935 112.825 26.6562 113.827 26.6562Z" fill="white"/>
<defs>
<radialGradient id="paint0_radial_2_22" cx="0" cy="0" r="1" gradientUnits="userSpaceOnUse" gradientTransform="translate(7.34962 23.0099) rotate(-110.423) scale(14.6395 25.2619)">
<stop stop-color="#1BA1E3"/>
<stop offset="0.3002" stop-color="#5489D6"/>
<stop offset="0.5455" stop-color="#9B72CB"/>
<stop offset="0.8254" stop-color="#D96570"/>
<stop offset="1" stop-color="#F49C46"/>
</radialGradient>
<radialGradient id="paint1_radial_2_22" cx="0" cy="0" r="1" gradientUnits="userSpaceOnUse" gradientTransform="translate(21.4215 11.1512) rotate(78.8647) scale(11.3958 11.3949)">
<stop stop-color="#1BA1E3"/>
<stop offset="0.3002" stop-color="#5489D6"/>
<stop offset="0.5455" stop-color="#9B72CB"/>
<stop offset="0.8254" stop-color="#D96570"/>
<stop offset="1" stop-color="#F49C46"/>
</radialGradient>
</defs>
</svg>
